<mxfile host="app.diagrams.net" agent="Mozilla/5.0 (Windows NT 10.0; Win64; x64) AppleWebKit/537.36 (KHTML, like Gecko) Chrome/137.0.0.0 Safari/537.36 Edg/137.0.0.0" version="27.1.4">
  <diagram name="Page-1" id="S7NB7NY3iAmFuTGl2qit">
    <mxGraphModel dx="778" dy="507" grid="1" gridSize="10" guides="1" tooltips="1" connect="1" arrows="1" fold="1" page="1" pageScale="1" pageWidth="850" pageHeight="1100" math="0" shadow="0">
      <root>
        <mxCell id="0" />
        <mxCell id="1" parent="0" />
        <mxCell id="j9hMd5d4Fvts6X-9vzU8-1" value="" style="rounded=0;whiteSpace=wrap;html=1;" vertex="1" parent="1">
          <mxGeometry x="15" y="20" width="775" height="130" as="geometry" />
        </mxCell>
        <mxCell id="j9hMd5d4Fvts6X-9vzU8-2" value="" style="rounded=0;whiteSpace=wrap;html=1;" vertex="1" parent="1">
          <mxGeometry x="30" y="42.5" width="160" height="85" as="geometry" />
        </mxCell>
        <mxCell id="j9hMd5d4Fvts6X-9vzU8-3" value="" style="rounded=0;whiteSpace=wrap;html=1;" vertex="1" parent="1">
          <mxGeometry x="250" y="62.5" width="150" height="45" as="geometry" />
        </mxCell>
        <mxCell id="j9hMd5d4Fvts6X-9vzU8-4" value="" style="rounded=0;whiteSpace=wrap;html=1;" vertex="1" parent="1">
          <mxGeometry x="400" y="62.5" width="150" height="45" as="geometry" />
        </mxCell>
        <mxCell id="j9hMd5d4Fvts6X-9vzU8-5" value="&lt;font size=&quot;3&quot;&gt;Contact&lt;/font&gt;" style="rounded=0;whiteSpace=wrap;html=1;" vertex="1" parent="1">
          <mxGeometry x="550" y="62.5" width="150" height="45" as="geometry" />
        </mxCell>
        <mxCell id="j9hMd5d4Fvts6X-9vzU8-6" value="" style="rounded=0;whiteSpace=wrap;html=1;" vertex="1" parent="1">
          <mxGeometry x="15" y="170" width="775" height="200" as="geometry" />
        </mxCell>
        <mxCell id="j9hMd5d4Fvts6X-9vzU8-7" value="" style="ellipse;whiteSpace=wrap;html=1;aspect=fixed;" vertex="1" parent="1">
          <mxGeometry x="400" y="390" width="80" height="80" as="geometry" />
        </mxCell>
        <mxCell id="j9hMd5d4Fvts6X-9vzU8-8" value="" style="ellipse;whiteSpace=wrap;html=1;aspect=fixed;" vertex="1" parent="1">
          <mxGeometry x="500" y="390" width="80" height="80" as="geometry" />
        </mxCell>
        <mxCell id="j9hMd5d4Fvts6X-9vzU8-9" value="" style="ellipse;whiteSpace=wrap;html=1;aspect=fixed;" vertex="1" parent="1">
          <mxGeometry x="600" y="390" width="80" height="80" as="geometry" />
        </mxCell>
        <mxCell id="j9hMd5d4Fvts6X-9vzU8-11" value="" style="rounded=0;whiteSpace=wrap;html=1;" vertex="1" parent="1">
          <mxGeometry x="15" y="490" width="775" height="660" as="geometry" />
        </mxCell>
        <mxCell id="j9hMd5d4Fvts6X-9vzU8-12" value="" style="rounded=0;whiteSpace=wrap;html=1;" vertex="1" parent="1">
          <mxGeometry x="60" y="570" width="690" height="50" as="geometry" />
        </mxCell>
        <mxCell id="j9hMd5d4Fvts6X-9vzU8-13" value="" style="rounded=0;whiteSpace=wrap;html=1;" vertex="1" parent="1">
          <mxGeometry x="60" y="660" width="690" height="50" as="geometry" />
        </mxCell>
        <mxCell id="j9hMd5d4Fvts6X-9vzU8-14" value="" style="rounded=0;whiteSpace=wrap;html=1;" vertex="1" parent="1">
          <mxGeometry x="60" y="930" width="700" height="120" as="geometry" />
        </mxCell>
        <mxCell id="j9hMd5d4Fvts6X-9vzU8-15" value="&lt;font style=&quot;font-size: 18px;&quot;&gt;Meet our team&lt;/font&gt;" style="text;strokeColor=none;align=center;fillColor=none;html=1;verticalAlign=middle;whiteSpace=wrap;rounded=0;" vertex="1" parent="1">
          <mxGeometry x="150" y="390" width="140" height="55" as="geometry" />
        </mxCell>
        <mxCell id="j9hMd5d4Fvts6X-9vzU8-16" value="&lt;font style=&quot;font-size: 18px;&quot;&gt;Home&lt;/font&gt;" style="text;strokeColor=none;align=center;fillColor=none;html=1;verticalAlign=middle;whiteSpace=wrap;rounded=0;" vertex="1" parent="1">
          <mxGeometry x="250" y="65" width="140" height="42.5" as="geometry" />
        </mxCell>
        <mxCell id="j9hMd5d4Fvts6X-9vzU8-17" value="&lt;font style=&quot;font-size: 18px;&quot;&gt;About Us&lt;/font&gt;" style="text;strokeColor=none;align=center;fillColor=none;html=1;verticalAlign=middle;whiteSpace=wrap;rounded=0;" vertex="1" parent="1">
          <mxGeometry x="405" y="62.5" width="140" height="42.5" as="geometry" />
        </mxCell>
        <mxCell id="j9hMd5d4Fvts6X-9vzU8-18" value="&lt;font style=&quot;font-size: 18px;&quot;&gt;Contact Us&lt;/font&gt;" style="text;strokeColor=none;align=center;fillColor=none;html=1;verticalAlign=middle;whiteSpace=wrap;rounded=0;" vertex="1" parent="1">
          <mxGeometry x="330" y="170" width="140" height="55" as="geometry" />
        </mxCell>
        <mxCell id="j9hMd5d4Fvts6X-9vzU8-19" value="&lt;font style=&quot;font-size: 14px;&quot;&gt;Phone: 000 000 000&lt;/font&gt;" style="text;strokeColor=none;align=center;fillColor=none;html=1;verticalAlign=middle;whiteSpace=wrap;rounded=0;" vertex="1" parent="1">
          <mxGeometry x="70" y="210" width="140" height="20" as="geometry" />
        </mxCell>
        <mxCell id="j9hMd5d4Fvts6X-9vzU8-20" value="&lt;font style=&quot;font-size: 14px;&quot;&gt;Email: Contact@gmail.com&lt;/font&gt;" style="text;strokeColor=none;align=center;fillColor=none;html=1;verticalAlign=middle;whiteSpace=wrap;rounded=0;" vertex="1" parent="1">
          <mxGeometry x="70" y="230" width="180" height="20" as="geometry" />
        </mxCell>
        <mxCell id="j9hMd5d4Fvts6X-9vzU8-21" value="&lt;font style=&quot;font-size: 14px;&quot;&gt;Address: 111 Asaba, Delta State, Nigeria&lt;/font&gt;" style="text;strokeColor=none;align=center;fillColor=none;html=1;verticalAlign=middle;whiteSpace=wrap;rounded=0;" vertex="1" parent="1">
          <mxGeometry x="70" y="250" width="260" height="20" as="geometry" />
        </mxCell>
        <mxCell id="j9hMd5d4Fvts6X-9vzU8-22" value="" style="rounded=0;whiteSpace=wrap;html=1;" vertex="1" parent="1">
          <mxGeometry x="70" y="280" width="660" height="60" as="geometry" />
        </mxCell>
        <mxCell id="j9hMd5d4Fvts6X-9vzU8-23" value="&lt;font style=&quot;font-size: 18px;&quot;&gt;Get in touch&lt;/font&gt;" style="text;strokeColor=none;align=center;fillColor=none;html=1;verticalAlign=middle;whiteSpace=wrap;rounded=0;" vertex="1" parent="1">
          <mxGeometry x="348.75" y="510" width="112.5" height="20" as="geometry" />
        </mxCell>
        <mxCell id="j9hMd5d4Fvts6X-9vzU8-24" value="&lt;font style=&quot;font-size: 14px;&quot;&gt;Name:&lt;/font&gt;" style="text;strokeColor=none;align=center;fillColor=none;html=1;verticalAlign=middle;whiteSpace=wrap;rounded=0;" vertex="1" parent="1">
          <mxGeometry x="60" y="550" width="42.5" height="20" as="geometry" />
        </mxCell>
        <mxCell id="j9hMd5d4Fvts6X-9vzU8-25" value="&lt;font style=&quot;font-size: 14px;&quot;&gt;Email:&lt;/font&gt;" style="text;strokeColor=none;align=center;fillColor=none;html=1;verticalAlign=middle;whiteSpace=wrap;rounded=0;" vertex="1" parent="1">
          <mxGeometry x="60" y="640" width="42.5" height="20" as="geometry" />
        </mxCell>
        <mxCell id="j9hMd5d4Fvts6X-9vzU8-26" value="&lt;label for=&quot;purpose&quot; style=&quot;display: block; margin-bottom: 10px; color: rgb(51, 51, 51); font-family: Calibri, sans-serif; font-size: medium; font-style: normal; font-variant-ligatures: normal; font-variant-caps: normal; font-weight: 400; letter-spacing: normal; orphans: 2; text-align: start; text-indent: 0px; text-transform: none; widows: 2; word-spacing: 0px; -webkit-text-stroke-width: 0px; white-space: normal; background-color: rgb(247, 247, 247); text-decoration-thickness: initial; text-decoration-style: initial; text-decoration-color: initial;&quot;&gt;Purpose:&lt;/label&gt;&lt;input type=&quot;radio&quot; id=&quot;general&quot; name=&quot;purpose&quot; value=&quot;General Inquiry&quot; style=&quot;orphans: 2; widows: 2; -webkit-text-stroke-width: 0px; white-space: normal; text-decoration-thickness: initial; text-decoration-style: initial; text-decoration-color: initial;&quot;&gt;&lt;span style=&quot;color: rgb(51, 51, 51); font-family: Calibri, sans-serif; font-size: medium; font-style: normal; font-variant-ligatures: normal; font-variant-caps: normal; font-weight: 400; letter-spacing: normal; orphans: 2; text-align: start; text-indent: 0px; text-transform: none; widows: 2; word-spacing: 0px; -webkit-text-stroke-width: 0px; white-space: normal; background-color: rgb(247, 247, 247); text-decoration-thickness: initial; text-decoration-style: initial; text-decoration-color: initial; display: inline !important; float: none;&quot;&gt;&lt;/span&gt;&lt;label for=&quot;general&quot; style=&quot;display: block; margin-bottom: 10px; color: rgb(51, 51, 51); font-family: Calibri, sans-serif; font-size: medium; font-style: normal; font-variant-ligatures: normal; font-variant-caps: normal; font-weight: 400; letter-spacing: normal; orphans: 2; text-align: start; text-indent: 0px; text-transform: none; widows: 2; word-spacing: 0px; -webkit-text-stroke-width: 0px; white-space: normal; background-color: rgb(247, 247, 247); text-decoration-thickness: initial; text-decoration-style: initial; text-decoration-color: initial;&quot;&gt;General Inquiry&lt;/label&gt;&lt;input type=&quot;radio&quot; id=&quot;reservation&quot; name=&quot;purpose&quot; value=&quot;Reservation Question&quot; style=&quot;orphans: 2; widows: 2; -webkit-text-stroke-width: 0px; white-space: normal; text-decoration-thickness: initial; text-decoration-style: initial; text-decoration-color: initial;&quot;&gt;&lt;span style=&quot;color: rgb(51, 51, 51); font-family: Calibri, sans-serif; font-size: medium; font-style: normal; font-variant-ligatures: normal; font-variant-caps: normal; font-weight: 400; letter-spacing: normal; orphans: 2; text-align: start; text-indent: 0px; text-transform: none; widows: 2; word-spacing: 0px; -webkit-text-stroke-width: 0px; white-space: normal; background-color: rgb(247, 247, 247); text-decoration-thickness: initial; text-decoration-style: initial; text-decoration-color: initial; display: inline !important; float: none;&quot;&gt;&lt;/span&gt;&lt;label for=&quot;reservation&quot; style=&quot;display: block; margin-bottom: 10px; color: rgb(51, 51, 51); font-family: Calibri, sans-serif; font-size: medium; font-style: normal; font-variant-ligatures: normal; font-variant-caps: normal; font-weight: 400; letter-spacing: normal; orphans: 2; text-align: start; text-indent: 0px; text-transform: none; widows: 2; word-spacing: 0px; -webkit-text-stroke-width: 0px; white-space: normal; background-color: rgb(247, 247, 247); text-decoration-thickness: initial; text-decoration-style: initial; text-decoration-color: initial;&quot;&gt;Reservation Question&lt;/label&gt;&lt;input type=&quot;radio&quot; id=&quot;website&quot; name=&quot;purpose&quot; value=&quot;Website Suggestion&quot; style=&quot;orphans: 2; widows: 2; -webkit-text-stroke-width: 0px; white-space: normal; text-decoration-thickness: initial; text-decoration-style: initial; text-decoration-color: initial;&quot;&gt;&lt;span style=&quot;color: rgb(51, 51, 51); font-family: Calibri, sans-serif; font-size: medium; font-style: normal; font-variant-ligatures: normal; font-variant-caps: normal; font-weight: 400; letter-spacing: normal; orphans: 2; text-align: start; text-indent: 0px; text-transform: none; widows: 2; word-spacing: 0px; -webkit-text-stroke-width: 0px; white-space: normal; background-color: rgb(247, 247, 247); text-decoration-thickness: initial; text-decoration-style: initial; text-decoration-color: initial; display: inline !important; float: none;&quot;&gt;&lt;/span&gt;&lt;label for=&quot;website&quot; style=&quot;display: block; margin-bottom: 10px; color: rgb(51, 51, 51); font-family: Calibri, sans-serif; font-size: medium; font-style: normal; font-variant-ligatures: normal; font-variant-caps: normal; font-weight: 400; letter-spacing: normal; orphans: 2; text-align: start; text-indent: 0px; text-transform: none; widows: 2; word-spacing: 0px; -webkit-text-stroke-width: 0px; white-space: normal; background-color: rgb(247, 247, 247); text-decoration-thickness: initial; text-decoration-style: initial; text-decoration-color: initial;&quot;&gt;Website Suggestion&lt;/label&gt;&lt;br class=&quot;Apple-interchange-newline&quot;&gt;" style="text;whiteSpace=wrap;html=1;" vertex="1" parent="1">
          <mxGeometry x="58.75" y="720" width="290" height="180" as="geometry" />
        </mxCell>
        <mxCell id="j9hMd5d4Fvts6X-9vzU8-27" value="&lt;font style=&quot;font-size: 14px;&quot;&gt;Message:&lt;/font&gt;" style="text;strokeColor=none;align=center;fillColor=none;html=1;verticalAlign=middle;whiteSpace=wrap;rounded=0;" vertex="1" parent="1">
          <mxGeometry x="60" y="900" width="60" height="30" as="geometry" />
        </mxCell>
        <mxCell id="j9hMd5d4Fvts6X-9vzU8-28" value="&lt;font style=&quot;font-size: 14px;&quot;&gt;Please subscribe me to the monthly Newsletter&lt;/font&gt;" style="text;strokeColor=none;align=center;fillColor=none;html=1;verticalAlign=middle;whiteSpace=wrap;rounded=0;" vertex="1" parent="1">
          <mxGeometry x="58.75" y="1070" width="311.25" height="30" as="geometry" />
        </mxCell>
        <mxCell id="j9hMd5d4Fvts6X-9vzU8-29" value="" style="ellipse;whiteSpace=wrap;html=1;aspect=fixed;" vertex="1" parent="1">
          <mxGeometry x="76.25" y="1060" width="10" height="10" as="geometry" />
        </mxCell>
        <mxCell id="j9hMd5d4Fvts6X-9vzU8-31" value="Submit" style="rounded=1;whiteSpace=wrap;html=1;" vertex="1" parent="1">
          <mxGeometry x="70" y="1100" width="91.25" height="30" as="geometry" />
        </mxCell>
      </root>
    </mxGraphModel>
  </diagram>
</mxfile>
